# xmcd
#
# Track frame offsets: 
#        300
#        19848
#        42111
#        59502
#        75027
#        95648
#        113439
#        130453
#        151889
#        177540
#        197174
#        216224
#        233801
#        248767
#
# Disc length: 3403 seconds
#
# Revision: 0
# Processed by: cddbd v1.5.2PL0 Copyright (c) Steve Scherf et al.
# Submitted via: ExactAudioCopyFreeDBPlugin 1.0
#
DISCID=b60d470e
DTITLE=葫芦丝 - DTS51竹林深处
DYEAR=2000
DGENRE=DTS
TTITLE0=萍聚
TTITLE1=军港之夜
TTITLE2=竹林深处
TTITLE3=渔歌
TTITLE4=祈祷
TTITLE5=驿动的心
TTITLE6=知道不知道
TTITLE7=甜蜜蜜
TTITLE8=山寨情歌
TTITLE9=阿里山的姑娘
TTITLE10=情深谊长
TTITLE11=但愿人长久
TTITLE12=沧海一声笑
TTITLE13=测试DTS
EXTD=
EXTT0=
EXTT1=
EXTT2=
EXTT3=
EXTT4=
EXTT5=
EXTT6=
EXTT7=
EXTT8=
EXTT9=
EXTT10=
EXTT11=
EXTT12=
EXTT13=
PLAYORDER=
